<svg height="35" viewBox="0 0 178 35" width="178" xmlns="http://www.w3.org/2000/svg" class="logo"><g fill="none"><g fill="#323551" class="logo__letters"><path d="m28.7617266 33.310628v-12.2130435c0-3.5589372-1.9464748-6.247343-5.6345324-6.247343-3.56-.0256038-5.967482 2.9700484-5.967482 6.5289856v11.9314009h-5.7369784v-23.40193235h5.1735252l.3841727 3.17487925c2.3562589-2.3299517 4.7381295-3.50772949 7.6834532-3.50772949 5.5064748 0 9.9116547 4.12222219 9.9116547 11.47053139v12.2642512z"></path><path d="m62.262 9.909-9.938 23.478h-6.249l-9.988-23.478h6.3l3.201 7.732 3.612 9.858 3.56-9.756 3.227-7.809h6.275z"></path><path d="m69.9706475 23.6835749c.3841726 2.8932367 2.8941007 4.9671497 6.9663309 4.9671497 2.1257554 0 4.9174101-.7937198 6.2492087-2.1763285l3.6880575 3.6357488c-2.458705 2.5603865-6.4797122 3.789372-10.0397122 3.789372-8.0420144 0-12.8313669-4.9671498-12.8313669-12.4690821 0-7.0922705 4.8405755-12.2130435 12.4215827-12.2130435 7.8115108 0 12.7033094 4.8391304 11.8069065 14.4405797h-18.2610072zm12.7033093-4.7623189c-.3841726-3.0468599-2.7660431-4.5574879-6.069928-4.5574879-3.1246043 0-5.6857554 1.510628-6.5309353 4.5574879zm27.1738132 14.389372v-12.2130435c0-3.5589372-1.946475-6.247343-5.634533-6.247343-3.56 0-5.9674816 2.9956522-5.9674816 6.5289856v11.9314009h-5.7369784v-23.40193235h5.1735252l.3841726 3.17487925c2.3562592-2.3299517 4.7381292-3.50772949 7.6834532-3.50772949 5.506475 0 9.911655 4.12222219 9.911655 11.47053139v12.2642512zm17.928057-29.93091786v6.63140096h6.172374v4.9671498h-6.249208v10.0879227c0 2.2275362 1.229352 3.3028985 3.022158 3.3028985.896403 0 1.946475-.2816425 2.791655-.7169082l1.613525 4.915942c-1.664748.6657005-3.022158.947343-4.789353.9985508-5.071079.179227-8.374964-2.6884058-8.374964-8.526087v-10.0623188h-4.353956v-4.9671498h4.353956v-6.0169082zm17.031655 0c0 4.5062802-6.812662 4.5062802-6.812662 0 0-4.50628019 6.812662-4.50628019 6.812662 0zm-6.300432 6.60579711v23.32512075h5.788202v-23.32512075zm-131.43827302-6.60579711c0 4.5062802-6.81266187 4.5062802-6.81266187 0 0-4.50628019 6.81266187-4.50628019 6.81266187 0zm-6.30043166 6.60579711v23.32512075h5.78820144v-23.32512075zm163.99050368 6.17053135c-1.664748-1.5618357-3.56-2.073913-5.788202-2.073913-2.740431 0-4.25151.8449275-4.25151 2.3299517 0 1.510628 1.383021 2.3555556 4.353957 2.5603865 4.405179.2816425 9.988489 1.2801932 9.988489 7.4763285 0 4.1222222-3.355108 7.6811594-10.039712 7.6811594-3.688058 0-7.401727-.6144928-10.808058-4.17343l2.842878-4.1222222c1.664748 1.8434783 5.455251 3.226087 8.042014 3.2772947 2.176978.0512077 4.225899-1.1009662 4.225899-2.7908213 0-1.6130434-1.331798-2.2787439-4.635683-2.457971-4.40518-.3328502-9.65554-1.9458937-9.65554-7.2458937 0-5.4024154 5.58331-7.29710144 9.860432-7.29710144 3.636834 0 6.402878.71690824 9.092086 3.07246374z"></path></g><path d="m177.769496 30.8014493c-.128057-.9217392-.665899-2.1763285-1.229352-3.3285024 0 0-.128058 1.0497584-1.306187 1.7666666 0-.0512077 0 0 0-.0512077.204892-.9217391.204892-1.6642512.076834-2.2531401-.051223-.3072464-.230503-.6913043-.332949-.9217391-.435396-.9985508-1.434245-1.2801933-1.459856-1.2033817-.025612.0768116.281726.2048309.332949 1.0241546.051223.8449276-.486618 1.7410628-.768345 2.2531401-.691511 1.4338164-1.050072 2.3811594-1.050072 2.3811594-.076835.2560387-.128058.5376812-.128058.8449276 0 1.6130434 1.306187 2.9188405 2.919713 2.9188405 1.485467 0 2.71482-1.1009661 2.8941-2.5347826.102446-.3328502.128058-.5888888.051223-.8961352z" fill="#2b7ec1"></path></g></svg>
